<mxfile host="app.diagrams.net" modified="2022-05-07T10:01:52.016Z" agent="5.0 (Windows NT 10.0; Win64; x64) AppleWebKit/537.36 (KHTML, like Gecko) Chrome/101.0.4951.54 Safari/537.36" etag="CllR2mA8mz6HvDaH1G9r" version="18.0.1" type="github">
  <diagram id="lRPkM05fjYoQ5o-PED4z" name="Page-1">
    <mxGraphModel dx="731" dy="402" grid="0" gridSize="10" guides="1" tooltips="1" connect="1" arrows="1" fold="1" page="0" pageScale="1" pageWidth="827" pageHeight="1169" math="0" shadow="0">
      <root>
        <mxCell id="0" />
        <mxCell id="1" parent="0" />
      </root>
    </mxGraphModel>
  </diagram>
</mxfile>
